<?xml version="1.0" encoding="utf-8"?>
<!-- Generator: Adobe Illustrator 25.4.1, SVG Export Plug-In . SVG Version: 6.00 Build 0)  -->
<svg version="1.1" id="Layer_1" xmlns="http://www.w3.org/2000/svg" xmlns:xlink="http://www.w3.org/1999/xlink" x="0px" y="0px"
	 viewBox="0 0 500 441" style="enable-background:new 0 0 500 441;" xml:space="preserve">
<style type="text/css">
	.st0{fill:#FFFFFF;}
</style>
<g transform="translate(0.000000,720.000000) scale(0.100000,-0.100000)">
	<path class="st0" d="M1621.2,7188.1c-58-7.3-124-35.2-159.2-68.2c-32.3-30.8-63.8-97.6-74.1-157.8c-5.1-35.2-7.3-601.7-5.9-1997.4
		l2.2-1948.3l19.1-49.2c10.3-26.4,29.4-61.6,41.8-77.1c27.2-34.5,92.5-70.4,146.8-82.2c27.2-5.9,287.7-8.1,861.5-8.1
		c883.5,0,864.4-0.7,938.6,36.7c37.4,19.8,83.7,74.1,103.5,124l16.9,41.1l2.2,875.4c1.5,765.4,2.9,874.7,12.5,874.7
		c16.9,0,16.1,539.4,0,546c-8.8,2.9-11,19.8-11,88.8c0,70.4,2.2,84.4,11,84.4c9.5,0,11,19.8,11,132.1c0,111.5-1.5,132.1-11,132.1
		c-8.8,0-11,81.5-12.5,625.9c-2.2,588.5-2.9,627.4-16.1,662.6c-34.5,96.1-108.6,150.4-224.5,164.4
		C3200.3,7197,1696.7,7197,1621.2,7188.1z M3442.5,4964.7V3203.5h-994.3h-994.3v1761.2v1761.2h994.3h994.3V4964.7z"/>
</g>
<polygon class="st0" points="197.7,195.5 210.4,182.7 223,195.5 230.9,187.5 218.4,174.8 230.9,162.2 223,154.2 210.4,166.9 
	197.7,154.2 189.8,162.2 202.4,174.8 189.8,187.5 "/>
<polygon class="st0" points="267.6,195.5 280.2,182.7 292.8,195.5 300.7,187.5 288.2,174.8 300.7,162.2 292.8,154.2 280.2,166.9 
	267.6,154.2 259.7,162.2 272.2,174.8 259.7,187.5 "/>
<path class="st0" d="M300.9,225.2H189.2v11.3h65.7v8.5c0,11.8,8.8,21.6,20.1,23.1c1,0.1,2.1,0.2,3.1,0.2c10.8,0,19.8-7.6,22.3-17.8
	c0.4-1.8,0.6-3.6,0.6-5.5L300.9,225.2L300.9,225.2z M266,236.5h23.8v8.5c0,6.6-5.3,12-11.9,12c-6.5,0-11.9-5.4-11.9-12V236.5z"/>
</svg>
